# xmcd CD database file
#
# Track frame offsets:
#	150
#	19567
#	39352
#	60720
#	69875
#	88472
#	98557
#	119695
#	139802
#	160327
#	182640
#	196340
#	220260
#	233195
#
# Disc length: 3284 seconds
#
# Revision: 0
# Processed by: cddbd v1.4PL0 Copyright (c) Steve Scherf et al.
# Submitted via: CDex 1.50Beta7
#
DISCID=c10cd20e
DTITLE=Oliver Jones - The Many Moods Of
DYEAR=1984
DGENRE=Jazz
TTITLE0=Something for Chuck
TTITLE1=Solar
TTITLE2=You Must Belive in Spring
TTITLE3=Straight No Chaser
TTITLE4=I've Got It Bad and That Ain't Good
TTITLE5=Summer Me, Winter Me
TTITLE6=Caravan
TTITLE7=Emily
TTITLE8=Alone Together
TTITLE9=Lovely Lauren
TTITLE10=It's Only a Paper Moon
TTITLE11=It Never Entered My Mind
TTITLE12=Sweet Lorraine
TTITLE13=If I Should Lose You
EXTD=YEAR: 1984
EXTT0=
EXTT1=
EXTT2=
EXTT3=
EXTT4=
EXTT5=
EXTT6=
EXTT7=
EXTT8=
EXTT9=
EXTT10=
EXTT11=
EXTT12=
EXTT13=
PLAYORDER=
